<svg width="34" height="34" viewBox="0 0 34 34" fill="none" xmlns="http://www.w3.org/2000/svg">
<path d="M10.7778 17H17V8.11111M1 17C1 19.1012 1.41385 21.1817 2.21793 23.1229C3.022 25.0641 4.20055 26.828 5.68629 28.3137C7.17203 29.7994 8.93586 30.978 10.8771 31.7821C12.8183 32.5861 14.8989 33 17 33C19.1012 33 21.1817 32.5861 23.1229 31.7821C25.0641 30.978 26.828 29.7994 28.3137 28.3137C29.7994 26.828 30.978 25.0641 31.7821 23.1229C32.5861 21.1817 33 19.1012 33 17C33 14.8989 32.5861 12.8183 31.7821 10.8771C30.978 8.93586 29.7994 7.17203 28.3137 5.68629C26.828 4.20055 25.0641 3.022 23.1229 2.21793C21.1817 1.41385 19.1012 1 17 1C14.8989 1 12.8183 1.41385 10.8771 2.21793C8.93586 3.022 7.17203 4.20055 5.68629 5.68629C4.20055 7.17203 3.022 8.93586 2.21793 10.8771C1.41385 12.8183 1 14.8989 1 17Z" stroke="#007FEE" stroke-width="2" stroke-linecap="round" stroke-linejoin="round"/>
</svg>
