<svg width="22" height="22" viewBox="0 0 22 22" fill="none" xmlns="http://www.w3.org/2000/svg">
<path d="M7.1116 11H11.0005V5.44444M1.00049 11C1.00049 12.3132 1.25915 13.6136 1.76169 14.8268C2.26424 16.0401 3.00083 17.1425 3.92942 18.0711C4.85801 18.9997 5.9604 19.7363 7.17365 20.2388C8.38691 20.7413 9.68727 21 11.0005 21C12.3137 21 13.6141 20.7413 14.8273 20.2388C16.0406 19.7363 17.143 18.9997 18.0716 18.0711C19.0001 17.1425 19.7367 16.0401 20.2393 14.8268C20.7418 13.6136 21.0005 12.3132 21.0005 11C21.0005 9.68678 20.7418 8.38642 20.2393 7.17317C19.7367 5.95991 19.0001 4.85752 18.0716 3.92893C17.143 3.00035 16.0406 2.26375 14.8273 1.7612C13.6141 1.25866 12.3137 1 11.0005 1C9.68727 1 8.38691 1.25866 7.17365 1.7612C5.9604 2.26375 4.85801 3.00035 3.92942 3.92893C3.00083 4.85752 2.26424 5.95991 1.76169 7.17317C1.25915 8.38642 1.00049 9.68678 1.00049 11Z" stroke="white" stroke-width="2" stroke-linecap="round" stroke-linejoin="round"/>
</svg>
