<svg width="34" height="31" viewBox="0 0 34 31" fill="none" xmlns="http://www.w3.org/2000/svg">
<path d="M1 20.2053C1.55467 20.4453 2.16267 20.568 2.77778 20.5555C3.47022 20.57 4.15577 20.4157 4.77525 20.106C5.39472 19.7963 5.92947 19.3404 6.33333 18.7777C6.73719 18.2151 7.27195 17.7592 7.89142 17.4495C8.51089 17.1397 9.19645 16.9855 9.88889 17C10.5813 16.9855 11.2669 17.1397 11.8864 17.4495C12.5058 17.7592 13.0406 18.2151 13.4444 18.7777C13.8483 19.3404 14.3831 19.7963 15.0025 20.106C15.622 20.4157 16.3076 20.57 17 20.5555C17.6924 20.57 18.378 20.4157 18.9975 20.106C19.6169 19.7963 20.1517 19.3404 20.5556 18.7777C20.9594 18.2151 21.4942 17.7592 22.1136 17.4495C22.7331 17.1397 23.4187 16.9855 24.1111 17C24.8035 16.9855 25.4891 17.1397 26.1086 17.4495C26.728 17.7592 27.2628 18.2151 27.6667 18.7777C28.0705 19.3404 28.6053 19.7963 29.2248 20.106C29.8442 20.4157 30.5298 20.57 31.2222 20.5555C31.8444 20.568 32.4524 20.4453 33 20.2053M1 29.4444H33V15.2222C33 13.8077 32.4381 12.4512 31.4379 11.451C30.4377 10.4508 29.0812 9.88889 27.6667 9.88889H6.33333C4.91885 9.88889 3.56229 10.4508 2.5621 11.451C1.5619 12.4512 1 13.8077 1 15.2222V29.4444ZM17 1L19.6044 3.912C20.0692 4.41162 20.3804 5.03441 20.5008 5.70604C20.6212 6.37768 20.5459 7.06979 20.2837 7.69976C20.0215 8.32974 19.5836 8.87097 19.0223 9.25886C18.4609 9.64674 17.7997 9.86491 17.1178 9.8873C16.4358 9.90969 15.7618 9.73537 15.1761 9.38515C14.5905 9.03492 14.1181 8.52359 13.8151 7.91217C13.5122 7.30075 13.3916 6.61507 13.4677 5.93698C13.5438 5.25889 13.8135 4.61703 14.2444 4.088L17 1Z" stroke="#007FEE" stroke-width="2" stroke-linecap="round" stroke-linejoin="round"/>
</svg>
