<svg width="34" height="34" viewBox="0 0 34 34" fill="none" xmlns="http://www.w3.org/2000/svg">
<path d="M1 33V29.4444C1 27.5585 1.7492 25.7497 3.0828 24.4161C4.41639 23.0825 6.22513 22.3333 8.11111 22.3333H15.2222C17.1082 22.3333 18.9169 23.0825 20.2505 24.4161C21.5841 25.7497 22.3333 27.5585 22.3333 29.4444V33M24.1111 1.23111C25.6407 1.62276 26.9965 2.51236 27.9647 3.75966C28.9329 5.00697 29.4584 6.54103 29.4584 8.12C29.4584 9.69897 28.9329 11.233 27.9647 12.4803C26.9965 13.7276 25.6407 14.6172 24.1111 15.0089M33 33V29.4444C32.991 27.8749 32.463 26.3525 31.4983 25.1145C30.5335 23.8765 29.1864 22.9924 27.6667 22.6M4.55556 8.11111C4.55556 9.9971 5.30476 11.8058 6.63835 13.1394C7.97194 14.473 9.78068 15.2222 11.6667 15.2222C13.5527 15.2222 15.3614 14.473 16.695 13.1394C18.0286 11.8058 18.7778 9.9971 18.7778 8.11111C18.7778 6.22513 18.0286 4.41639 16.695 3.0828C15.3614 1.7492 13.5527 1 11.6667 1C9.78068 1 7.97194 1.7492 6.63835 3.0828C5.30476 4.41639 4.55556 6.22513 4.55556 8.11111Z" stroke="#007FEE" stroke-width="2" stroke-linecap="round" stroke-linejoin="round"/>
</svg>
