<svg width="24" height="24" viewBox="0 0 24 24" fill="none" xmlns="http://www.w3.org/2000/svg">
<path d="M12.0042 11.5312C11.3831 11.5312 10.9214 12.0351 10.9214 12.614C10.9741 16.0008 10.5406 19.2656 9.62062 22.5281C9.45422 23.0297 9.6839 24 10.6636 24C11.1558 24 11.6067 23.6777 11.7473 23.1797C12.3802 20.9357 13.1583 17.3015 13.1302 12.6562C13.1292 12.0375 12.6277 11.5312 12.0042 11.5312ZM11.962 7.70154C9.05109 7.69216 7.08703 9.90466 7.12922 12.4406C7.16437 14.6845 6.95343 16.9345 6.5025 19.1203C6.37359 19.6875 6.76612 20.3212 7.37531 20.4501C7.9425 20.5732 8.57625 20.1865 8.70515 19.5773C9.19125 17.2279 9.4139 14.8148 9.37875 12.4476C9.36047 11.1843 10.2698 9.94216 11.9292 9.95153C13.3997 9.97497 14.6123 11.1408 14.6301 12.5531C14.6712 14.7609 14.5012 17.0648 14.1323 19.2797C14.0327 19.8468 14.4487 20.4689 15.0637 20.5743C15.9951 20.7267 16.3176 19.8656 16.3528 19.6429C16.7395 17.3414 16.9209 14.9039 16.8801 12.5601C16.837 9.89529 14.6339 7.73904 11.962 7.70154ZM6.77765 6.77341C6.29015 6.37966 5.58703 6.44997 5.18859 6.93279C3.99562 8.40935 3.34547 10.2797 3.37453 12.1828C3.40382 13.9462 3.2632 15.7158 2.9527 17.4375C2.84137 18.0047 3.24562 18.6328 3.85505 18.7439C4.79817 18.9079 5.12629 18.0468 5.12536 17.8359C5.45929 15.967 5.61754 14.0568 5.58234 12.1453C5.60578 10.7484 6.05578 9.43591 6.89484 8.35779C7.33078 7.87029 7.26047 7.16716 6.77765 6.77341ZM11.8636 3.85029C11.1839 3.83294 10.4573 3.91497 9.7589 4.08466C9.15562 4.1831 8.78062 4.79247 8.92125 5.43794C9.06773 6.04122 9.62906 6.4106 10.2384 6.26997C10.7995 6.15466 11.3292 6.09372 11.8777 6.09841C15.4106 6.15115 18.3276 8.98122 18.3886 12.4078C18.412 14.1829 18.3241 15.9281 18.125 17.7328C18.0546 18.3478 18.4999 18.8625 19.115 18.975C19.9001 19.0265 20.3103 18.4186 20.3571 17.985C20.5739 16.1217 20.6676 14.2467 20.6384 12.374C20.5589 7.74841 16.6448 3.9206 11.8636 3.85029ZM23.723 9.54372C23.5882 8.97653 22.9959 8.54763 22.3809 8.68216C21.8137 8.81693 21.3909 9.42044 21.5255 10.0237C21.7481 11.0315 21.754 11.7815 21.7481 12.9122C21.7423 13.5333 22.2403 14.0428 22.8614 14.0489C23.4764 14.0489 23.992 13.5511 23.9981 12.93C24.0042 11.8968 24.0136 10.8656 23.723 9.54372ZM21.8011 5.29216C19.5159 2.04044 15.7823 0.0562255 11.8027 -2.44433e-05C8.53359 -0.0410401 5.51203 1.16435 3.26203 3.41997C1.08844 5.59357 -0.0820312 8.48247 -0.0351563 11.5575L-0.0410156 12.5653C-0.0175828 13.1906 0.46875 13.7062 1.08984 13.725C1.10156 13.7297 1.11328 13.7297 1.125 13.7297C1.69219 13.7297 2.23219 13.2436 2.20781 12.6342L2.21367 11.527C2.22047 9.0656 3.15187 6.74997 4.89328 5.01091C6.71531 3.19451 9.17625 2.21622 11.8167 2.25138C15.0684 2.25607 18.1308 3.92107 20.0011 6.58122C20.3585 7.09075 21.0558 7.21404 21.5653 6.85661C22.0355 6.49685 22.1995 5.8031 21.8011 5.29216Z" fill="white"/>
</svg>
