<svg width="22" height="22" viewBox="0 0 22 22" fill="none" xmlns="http://www.w3.org/2000/svg">
<path d="M7.66667 21V14.3333C7.66667 13.744 7.90079 13.1787 8.31754 12.762C8.73429 12.3452 9.29952 12.1111 9.88889 12.1111H12.1111C12.7005 12.1111 13.2657 12.3452 13.6825 12.762C14.0992 13.1787 14.3333 13.744 14.3333 14.3333V21M3.22222 11H1L11 1L21 11H18.7778V18.7778C18.7778 19.3671 18.5437 19.9324 18.1269 20.3491C17.7102 20.7659 17.1449 21 16.5556 21H5.44444C4.85507 21 4.28984 20.7659 3.8731 20.3491C3.45635 19.9324 3.22222 19.3671 3.22222 18.7778V11Z" stroke="white" stroke-width="2" stroke-linecap="round" stroke-linejoin="round"/>
</svg>
