<svg width="34" height="34" viewBox="0 0 34 34" fill="none" xmlns="http://www.w3.org/2000/svg">
<path d="M15.8126 31.3158H4.36842C3.47506 31.3158 2.61829 30.9609 1.98659 30.3292C1.35489 29.6975 1 28.8407 1 27.9474V7.73684C1 6.84348 1.35489 5.98671 1.98659 5.35501C2.61829 4.72331 3.47506 4.36842 4.36842 4.36842H24.5789C25.4723 4.36842 26.3291 4.72331 26.9608 5.35501C27.5925 5.98671 27.9474 6.84348 27.9474 7.73684V14.4737H1M21.2105 1V7.73684M7.73684 1V7.73684M26.2632 23.7301V26.2631L27.9474 27.9473M19.5263 26.2632C19.5263 28.0499 20.2361 29.7634 21.4995 31.0268C22.7629 32.2902 24.4764 33 26.2632 33C28.0499 33 29.7634 32.2902 31.0268 31.0268C32.2902 29.7634 33 28.0499 33 26.2632C33 24.4764 32.2902 22.7629 31.0268 21.4995C29.7634 20.2361 28.0499 19.5263 26.2632 19.5263C24.4764 19.5263 22.7629 20.2361 21.4995 21.4995C20.2361 22.7629 19.5263 24.4764 19.5263 26.2632Z" stroke="#007FEE" stroke-width="2" stroke-linecap="round" stroke-linejoin="round"/>
</svg>
