<svg width="22" height="22" viewBox="0 0 22 22" fill="none" xmlns="http://www.w3.org/2000/svg">
<path d="M17.1702 16.2773C15.6074 14.7147 13.488 13.8369 11.2781 13.8369C9.06814 13.8369 6.94872 14.7147 5.38597 16.2773M17.6668 1.89313C16.1356 1.00913 14.316 0.769575 12.6082 1.22715C10.9004 1.68473 9.44434 2.80196 8.56028 4.33308L20.1067 10.9996C20.9907 9.46844 21.2303 7.64884 20.7727 5.94105C20.3151 4.23327 19.1979 2.77719 17.6668 1.89313ZM17.6668 1.89313C18.7301 2.50645 18.1002 5.58862 16.258 8.77744M17.6668 1.89313C16.6034 1.27981 14.2503 3.36645 12.4092 6.55527M14.3335 7.66636L11.0003 13.4396M1.00049 19.055C1.34636 18.883 1.72547 18.7883 2.11158 18.7772C2.54434 18.7682 2.97281 18.8646 3.35997 19.0582C3.74713 19.2518 4.08134 19.5367 4.33375 19.8883C4.58616 20.24 4.92037 20.5249 5.30754 20.7185C5.6947 20.9121 6.12316 21.0085 6.55593 20.9994C6.98869 21.0085 7.41716 20.9121 7.80432 20.7185C8.19148 20.5249 8.52569 20.24 8.7781 19.8883C9.03051 19.5367 9.36472 19.2518 9.75188 19.0582C10.139 18.8646 10.5675 18.7682 11.0003 18.7772C11.433 18.7682 11.8615 18.8646 12.2487 19.0582C12.6358 19.2518 12.97 19.5367 13.2225 19.8883C13.4749 20.24 13.8091 20.5249 14.1962 20.7185C14.5834 20.9121 15.0119 21.0085 15.4446 20.9994C15.8774 21.0085 16.3059 20.9121 16.693 20.7185C17.0802 20.5249 17.4144 20.24 17.6668 19.8883C17.9192 19.5367 18.2534 19.2518 18.6406 19.0582C19.0277 18.8646 19.4562 18.7682 19.889 18.7772C20.2751 18.7883 20.6542 18.883 21.0001 19.055" stroke="white" stroke-width="2" stroke-linecap="round" stroke-linejoin="round"/>
</svg>
