<svg width="34" height="34" viewBox="0 0 34 34" fill="none" xmlns="http://www.w3.org/2000/svg">
<path d="M26.8715 25.4436C24.3711 22.9435 20.98 21.539 17.4441 21.539C13.9083 21.539 10.5172 22.9435 8.01678 25.4436M27.666 2.42901C25.2162 1.01461 22.3048 0.631321 19.5723 1.36344C16.8399 2.09556 14.5102 3.88313 13.0957 6.33293L31.5699 16.9994C32.9843 14.5495 33.3676 11.6381 32.6355 8.90569C31.9034 6.17323 30.1158 3.84351 27.666 2.42901ZM27.666 2.42901C29.3673 3.41032 28.3595 8.34179 25.412 13.4439M27.666 2.42901C25.9647 1.4477 22.1997 4.78631 19.254 9.88843M22.3329 11.6662L16.9997 20.9033M1 29.888C1.5534 29.6129 2.15997 29.4612 2.77774 29.4436C3.47016 29.4291 4.15571 29.5834 4.77517 29.8931C5.39462 30.2028 5.92937 30.6587 6.33322 31.2213C6.73707 31.784 7.27182 32.2398 7.89128 32.5496C8.51073 32.8593 9.19628 33.0136 9.8887 32.9991C10.5811 33.0136 11.2667 32.8593 11.8861 32.5496C12.5056 32.2398 13.0403 31.784 13.4442 31.2213C13.848 30.6587 14.3828 30.2028 15.0022 29.8931C15.6217 29.5834 16.3072 29.4291 16.9997 29.4436C17.6921 29.4291 18.3776 29.5834 18.9971 29.8931C19.6165 30.2028 20.1513 30.6587 20.5551 31.2213C20.959 31.784 21.4937 32.2398 22.1132 32.5496C22.7327 32.8593 23.4182 33.0136 24.1106 32.9991C24.803 33.0136 25.4886 32.8593 26.108 32.5496C26.7275 32.2398 27.2623 31.784 27.6661 31.2213C28.07 30.6587 28.6047 30.2028 29.2242 29.8931C29.8436 29.5834 30.5292 29.4291 31.2216 29.4436C31.8394 29.4612 32.4459 29.6129 32.9993 29.888" stroke="#007FEE" stroke-width="2" stroke-linecap="round" stroke-linejoin="round"/>
</svg>
