<svg width="256" height="39" viewBox="0 0 256 39" fill="none" xmlns="http://www.w3.org/2000/svg">
<path d="M177.935 8.94508C181.64 3.35856 187.898 0 194.602 0H242.454C248.542 0 252.399 6.53086 249.459 11.8627L240.2 28.6566C236.682 35.0374 229.972 39 222.686 39H172.906C166.525 39 162.712 31.8957 166.239 26.578L177.935 8.94508Z" fill="#007FEE"/>
<path d="M8.064 17.272H18.464V22.008H8.064V17.272ZM8.512 26.104H20.224V31H2.24V8.6H19.808V13.496H8.512V26.104ZM46.044 13.368C47.388 13.368 48.5827 13.6453 49.628 14.2C50.6947 14.7333 51.5267 15.5653 52.124 16.696C52.7427 17.8267 53.052 19.288 53.052 21.08V31H46.972V22.072C46.972 20.8347 46.7373 19.9387 46.268 19.384C45.7987 18.808 45.1587 18.52 44.348 18.52C43.772 18.52 43.2493 18.6587 42.78 18.936C42.3107 19.2133 41.948 19.64 41.692 20.216C41.436 20.7707 41.308 21.496 41.308 22.392V31H35.228V22.072C35.228 20.8347 34.9933 19.9387 34.524 19.384C34.076 18.808 33.436 18.52 32.604 18.52C32.0067 18.52 31.4733 18.6587 31.004 18.936C30.556 19.2133 30.1933 19.64 29.916 20.216C29.66 20.7707 29.532 21.496 29.532 22.392V31H23.452V13.656H29.244V18.488L28.092 17.112C28.732 15.8747 29.6067 14.9467 30.716 14.328C31.8253 13.688 33.0627 13.368 34.428 13.368C35.9853 13.368 37.3507 13.7733 38.524 14.584C39.7187 15.3733 40.5187 16.6107 40.924 18.296L38.94 17.88C39.5587 16.472 40.4867 15.3733 41.724 14.584C42.9827 13.7733 44.4227 13.368 46.044 13.368ZM67.8015 31.288C66.3295 31.288 65.0708 30.968 64.0255 30.328C62.9802 29.6667 62.1802 28.6853 61.6255 27.384C61.0922 26.0613 60.8255 24.376 60.8255 22.328C60.8255 20.2587 61.0815 18.5733 61.5935 17.272C62.1055 15.9493 62.8735 14.968 63.8975 14.328C64.9428 13.688 66.2442 13.368 67.8015 13.368C69.3802 13.368 70.8095 13.7413 72.0895 14.488C73.3908 15.2133 74.4148 16.248 75.1615 17.592C75.9295 18.9147 76.3135 20.4933 76.3135 22.328C76.3135 24.1627 75.9295 25.752 75.1615 27.096C74.4148 28.44 73.3908 29.4747 72.0895 30.2C70.8095 30.9253 69.3802 31.288 67.8015 31.288ZM56.8895 37.208V13.656H62.6815V16.6L62.6495 22.328L62.9695 28.088V37.208H56.8895ZM66.5215 26.456C67.2042 26.456 67.8122 26.296 68.3455 25.976C68.9002 25.656 69.3375 25.1867 69.6575 24.568C69.9988 23.9493 70.1695 23.2027 70.1695 22.328C70.1695 21.4533 69.9988 20.7067 69.6575 20.088C69.3375 19.4693 68.9002 19 68.3455 18.68C67.8122 18.36 67.2042 18.2 66.5215 18.2C65.8388 18.2 65.2202 18.36 64.6655 18.68C64.1322 19 63.6948 19.4693 63.3535 20.088C63.0335 20.7067 62.8735 21.4533 62.8735 22.328C62.8735 23.2027 63.0335 23.9493 63.3535 24.568C63.6948 25.1867 64.1322 25.656 64.6655 25.976C65.2202 26.296 65.8388 26.456 66.5215 26.456ZM79.1395 31V7.256H85.2195V31H79.1395ZM97.8748 31.288C95.9761 31.288 94.2908 30.904 92.8188 30.136C91.3468 29.368 90.1841 28.312 89.3307 26.968C88.4988 25.6027 88.0828 24.0453 88.0828 22.296C88.0828 20.5467 88.4988 19 89.3307 17.656C90.1841 16.312 91.3468 15.2667 92.8188 14.52C94.2908 13.752 95.9761 13.368 97.8748 13.368C99.7734 13.368 101.459 13.752 102.931 14.52C104.424 15.2667 105.587 16.312 106.419 17.656C107.251 19 107.667 20.5467 107.667 22.296C107.667 24.0453 107.251 25.6027 106.419 26.968C105.587 28.312 104.424 29.368 102.931 30.136C101.459 30.904 99.7734 31.288 97.8748 31.288ZM97.8748 26.456C98.5788 26.456 99.1974 26.296 99.7308 25.976C100.285 25.656 100.723 25.1867 101.043 24.568C101.363 23.928 101.523 23.1707 101.523 22.296C101.523 21.4213 101.363 20.6853 101.043 20.088C100.723 19.4693 100.285 19 99.7308 18.68C99.1974 18.36 98.5788 18.2 97.8748 18.2C97.1921 18.2 96.5734 18.36 96.0188 18.68C95.4854 19 95.0481 19.4693 94.7068 20.088C94.3868 20.6853 94.2268 21.4213 94.2268 22.296C94.2268 23.1707 94.3868 23.928 94.7068 24.568C95.0481 25.1867 95.4854 25.656 96.0188 25.976C96.5734 26.296 97.1921 26.456 97.8748 26.456ZM112.991 37.496C112.073 37.496 111.145 37.3467 110.207 37.048C109.289 36.7707 108.543 36.3973 107.966 35.928L110.079 31.672C110.441 31.992 110.857 32.2373 111.327 32.408C111.817 32.6 112.297 32.696 112.766 32.696C113.428 32.696 113.951 32.5467 114.335 32.248C114.719 31.9493 115.049 31.48 115.327 30.84L116.127 28.824L116.607 28.216L122.495 13.656H128.287L120.799 31.704C120.201 33.1973 119.508 34.36 118.719 35.192C117.951 36.0453 117.087 36.6427 116.127 36.984C115.188 37.3253 114.143 37.496 112.991 37.496ZM115.359 31.736L107.71 13.656H113.951L119.583 27.672L115.359 31.736ZM138.478 31.288C136.43 31.288 134.638 30.904 133.102 30.136C131.587 29.3467 130.403 28.28 129.549 26.936C128.718 25.5707 128.302 24.024 128.302 22.296C128.302 20.568 128.707 19.032 129.518 17.688C130.35 16.3227 131.491 15.2667 132.942 14.52C134.392 13.752 136.024 13.368 137.838 13.368C139.544 13.368 141.102 13.72 142.51 14.424C143.918 15.1067 145.038 16.12 145.87 17.464C146.702 18.808 147.118 20.44 147.118 22.36C147.118 22.5733 147.107 22.8187 147.086 23.096C147.064 23.3733 147.043 23.6293 147.022 23.864H133.294V20.664H143.79L141.486 21.56C141.507 20.7707 141.358 20.088 141.038 19.512C140.739 18.936 140.312 18.488 139.758 18.168C139.224 17.848 138.595 17.688 137.87 17.688C137.144 17.688 136.504 17.848 135.95 18.168C135.416 18.488 135 18.9467 134.702 19.544C134.403 20.12 134.254 20.8027 134.254 21.592V22.52C134.254 23.3733 134.424 24.1093 134.766 24.728C135.128 25.3467 135.64 25.8267 136.302 26.168C136.963 26.488 137.752 26.648 138.67 26.648C139.523 26.648 140.248 26.5307 140.846 26.296C141.464 26.04 142.072 25.656 142.67 25.144L145.87 28.472C145.038 29.3893 144.014 30.0933 142.798 30.584C141.582 31.0533 140.142 31.288 138.478 31.288ZM159.009 31.288C156.961 31.288 155.169 30.904 153.633 30.136C152.118 29.3467 150.934 28.28 150.081 26.936C149.249 25.5707 148.833 24.024 148.833 22.296C148.833 20.568 149.238 19.032 150.049 17.688C150.881 16.3227 152.022 15.2667 153.473 14.52C154.923 13.752 156.555 13.368 158.369 13.368C160.075 13.368 161.633 13.72 163.041 14.424C164.449 15.1067 165.569 16.12 166.401 17.464C167.233 18.808 167.649 20.44 167.649 22.36C167.649 22.5733 167.638 22.8187 167.617 23.096C167.595 23.3733 167.574 23.6293 167.553 23.864H153.825V20.664H164.321L162.017 21.56C162.038 20.7707 161.889 20.088 161.569 19.512C161.27 18.936 160.843 18.488 160.289 18.168C159.755 17.848 159.126 17.688 158.401 17.688C157.675 17.688 157.035 17.848 156.481 18.168C155.947 18.488 155.531 18.9467 155.233 19.544C154.934 20.12 154.785 20.8027 154.785 21.592V22.52C154.785 23.3733 154.955 24.1093 155.297 24.728C155.659 25.3467 156.171 25.8267 156.833 26.168C157.494 26.488 158.283 26.648 159.201 26.648C160.054 26.648 160.779 26.5307 161.377 26.296C161.995 26.04 162.603 25.656 163.201 25.144L166.401 28.472C165.569 29.3893 164.545 30.0933 163.329 30.584C162.113 31.0533 160.673 31.288 159.009 31.288Z" fill="#007FEE"/>
<path d="M186.216 8.6H192.552V31H186.216V8.6ZM177.576 31H171.24V8.6H177.576V31ZM186.664 22.264H177.128V17.016H186.664V22.264ZM204.029 31.288C202.621 31.288 201.352 31.0107 200.221 30.456C199.112 29.9013 198.237 29.0373 197.597 27.864C196.979 26.6693 196.669 25.1653 196.669 23.352V13.656H202.749V22.36C202.749 23.704 202.995 24.664 203.485 25.24C203.997 25.816 204.712 26.104 205.629 26.104C206.227 26.104 206.771 25.9653 207.261 25.688C207.752 25.4107 208.147 24.9733 208.445 24.376C208.744 23.7573 208.893 22.968 208.893 22.008V13.656H214.973V31H209.181V26.104L210.301 27.48C209.704 28.76 208.84 29.72 207.709 30.36C206.579 30.9787 205.352 31.288 204.029 31.288ZM229.802 31.288C228.244 31.288 226.943 30.968 225.898 30.328C224.874 29.688 224.106 28.7067 223.594 27.384C223.082 26.0613 222.826 24.3653 222.826 22.296C222.826 20.2693 223.092 18.5947 223.626 17.272C224.18 15.9493 224.98 14.968 226.026 14.328C227.071 13.688 228.33 13.368 229.802 13.368C231.38 13.368 232.81 13.7307 234.09 14.456C235.391 15.1813 236.415 16.216 237.162 17.56C237.93 18.8827 238.314 20.4613 238.314 22.296C238.314 24.152 237.93 25.752 237.162 27.096C236.415 28.4187 235.391 29.4533 234.09 30.2C232.81 30.9253 231.38 31.288 229.802 31.288ZM218.89 31V7.256H224.97V16.568L224.65 22.296L224.682 28.024V31H218.89ZM228.522 26.456C229.204 26.456 229.812 26.296 230.346 25.976C230.9 25.656 231.338 25.1867 231.658 24.568C231.999 23.928 232.17 23.1707 232.17 22.296C232.17 21.4213 231.999 20.6853 231.658 20.088C231.338 19.4693 230.9 19 230.346 18.68C229.812 18.36 229.204 18.2 228.522 18.2C227.839 18.2 227.22 18.36 226.666 18.68C226.132 19 225.695 19.4693 225.354 20.088C225.034 20.6853 224.874 21.4213 224.874 22.296C224.874 23.1707 225.034 23.928 225.354 24.568C225.695 25.1867 226.132 25.656 226.666 25.976C227.22 26.296 227.839 26.456 228.522 26.456Z" fill="white"/>
</svg>
