<svg width="36" height="32" viewBox="0 0 36 32" fill="none" xmlns="http://www.w3.org/2000/svg">
<path d="M21.625 8.5V4.75C21.625 3.75544 21.2299 2.80161 20.5266 2.09835C19.8234 1.39509 18.8696 1 17.875 1H4.75C3.75544 1 2.80161 1.39509 2.09835 2.09835C1.39509 2.80161 1 3.75544 1 4.75V27.25C1 28.2446 1.39509 29.1984 2.09835 29.9016C2.80161 30.6049 3.75544 31 4.75 31H17.875C18.8696 31 19.8234 30.6049 20.5266 29.9016C21.2299 29.1984 21.625 28.2446 21.625 27.25V23.5M12.25 16H34.75M34.75 16L29.125 10.375M34.75 16L29.125 21.625" stroke="#007FEE" stroke-width="2" stroke-linecap="round" stroke-linejoin="round"/>
</svg>
