<svg width="17" height="22" viewBox="0 0 17 22" fill="none" xmlns="http://www.w3.org/2000/svg">
<path d="M5.67791 16.5556V17.6667C5.67791 18.5507 5.97362 19.3986 6.49999 20.0237C7.02636 20.6488 7.74027 21 8.48466 21C9.22906 21 9.94297 20.6488 10.4693 20.0237C10.9957 19.3986 11.2914 18.5507 11.2914 17.6667V16.5556M6.6135 3.22222C6.6135 2.63285 6.81064 2.06762 7.16155 1.65087C7.51246 1.23413 7.9884 1 8.48466 1C8.98093 1 9.45686 1.23413 9.80777 1.65087C10.1587 2.06762 10.3558 2.63285 10.3558 3.22222C11.4303 3.82559 12.3462 4.76481 13.0054 5.93922C13.6647 7.11364 14.0424 8.47897 14.0982 9.88889V13.2222C14.1686 13.913 14.3746 14.5745 14.6996 15.1535C15.0246 15.7324 15.4595 16.2127 15.9693 16.5556H1C1.50984 16.2127 1.94476 15.7324 2.26976 15.1535C2.59476 14.5745 2.80076 13.913 2.87117 13.2222V9.88889C2.92689 8.47897 3.30462 7.11364 3.96388 5.93922C4.62314 4.76481 5.53906 3.82559 6.6135 3.22222Z" stroke="white" stroke-width="2" stroke-linecap="round" stroke-linejoin="round"/>
</svg>
