<svg width="22" height="22" viewBox="0 0 22 22" fill="none" xmlns="http://www.w3.org/2000/svg">
<path d="M14.335 9.88928V9.90039M3.41661 6.97605C2.92929 6.60151 2.55502 6.09952 2.33516 5.52557C2.1153 4.95162 2.05841 4.32806 2.17078 3.7238C2.28316 3.11954 2.56041 2.55812 2.97191 2.10158C3.3834 1.64504 3.91312 1.31117 4.5025 1.13686C5.09189 0.962549 5.71799 0.954593 6.31161 1.11387C6.90523 1.27315 7.44326 1.59345 7.86622 2.03939C8.28919 2.48532 8.58062 3.03952 8.70831 3.64073C8.836 4.24194 8.79497 4.86675 8.58977 5.4461M15.4461 2.11177V6.33718C16.8212 7.13284 17.8681 8.39205 18.3994 9.88928H19.8893C20.184 9.88928 20.4666 10.0063 20.675 10.2147C20.8833 10.4231 21.0004 10.7057 21.0004 11.0003V13.2225C21.0004 13.5172 20.8833 13.7998 20.675 14.0081C20.4666 14.2165 20.184 14.3336 19.8893 14.3336H18.3982C18.0249 15.3891 17.3905 16.3335 16.5561 17.0812V19.3334C16.5561 19.7754 16.3805 20.1993 16.068 20.5119C15.7554 20.8244 15.3315 21 14.8895 21C14.4475 21 14.0236 20.8244 13.711 20.5119C13.3985 20.1993 13.2229 19.7754 13.2229 19.3334V18.6856C12.8557 18.7471 12.4841 18.778 12.1118 18.7779H7.66751C7.29524 18.778 6.9236 18.7471 6.55644 18.6856V19.3334C6.55644 19.7754 6.38085 20.1993 6.0683 20.5119C5.75575 20.8244 5.33184 21 4.88983 21C4.44782 21 4.02391 20.8244 3.71136 20.5119C3.39881 20.1993 3.22322 19.7754 3.22322 19.3334V17.0812C2.21655 16.1812 1.50692 14.9967 1.18827 13.6845C0.869623 12.3723 0.956977 10.9943 1.43877 9.73286C1.92057 8.4714 2.77408 7.386 3.88635 6.62031C4.99861 5.85463 6.31718 5.44477 7.66751 5.44499H10.4452L15.445 2.11177H15.4461Z" stroke="white" stroke-width="2" stroke-linecap="round" stroke-linejoin="round"/>
</svg>
