<svg width="34" height="34" viewBox="0 0 34 34" fill="none" xmlns="http://www.w3.org/2000/svg">
<path d="M22.3361 15.2228V15.2406M4.86658 10.5617C4.08687 9.96241 3.48804 9.15924 3.13626 8.24092C2.78448 7.3226 2.69346 6.3249 2.87325 5.35808C3.05305 4.39127 3.49666 3.49299 4.15505 2.76253C4.81345 2.03206 5.66099 1.49787 6.604 1.21897C7.54702 0.940078 8.54878 0.927349 9.49858 1.18219C10.4484 1.43703 11.3092 1.94953 11.986 2.66302C12.6627 3.37652 13.129 4.26324 13.3333 5.22517C13.5376 6.1871 13.472 7.1868 13.1436 8.11376M24.1138 2.77883V9.53948C26.3139 10.8125 27.989 12.8273 28.839 15.2228H31.2229C31.6944 15.2228 32.1465 15.4101 32.4799 15.7435C32.8133 16.0769 33.0006 16.5291 33.0006 17.0006V20.556C33.0006 21.0275 32.8133 21.4796 32.4799 21.813C32.1465 22.1464 31.6944 22.3337 31.2229 22.3337H28.8372C28.2399 24.0225 27.2248 25.5336 25.8897 26.73V30.3334C25.8897 31.0406 25.6088 31.7189 25.1087 32.219C24.6086 32.7191 23.9304 33 23.2232 33C22.516 33 21.8377 32.7191 21.3376 32.219C20.8375 31.7189 20.5566 31.0406 20.5566 30.3334V29.297C19.9691 29.3954 19.3745 29.4448 18.7789 29.4446H11.668C11.0724 29.4448 10.4778 29.3954 9.8903 29.297V30.3334C9.8903 31.0406 9.60936 31.7189 9.10928 32.219C8.6092 32.7191 7.93095 33 7.22373 33C6.51651 33 5.83825 32.7191 5.33817 32.219C4.83809 31.7189 4.55715 31.0406 4.55715 30.3334V26.73C2.94647 25.29 1.81107 23.3948 1.30123 21.2953C0.791397 19.1958 0.931164 16.9909 1.70204 14.9726C2.47291 12.9542 3.83853 11.2176 5.61815 9.9925C7.39778 8.7674 9.50748 8.11163 11.668 8.11198H16.1123L24.112 2.77883H24.1138Z" stroke="#007FEE" stroke-width="2" stroke-linecap="round" stroke-linejoin="round"/>
</svg>
