<svg width="27" height="34" viewBox="0 0 27 34" fill="none" xmlns="http://www.w3.org/2000/svg">
<path d="M8.11111 4.55556H4.55556C3.61256 4.55556 2.70819 4.93016 2.0414 5.59695C1.3746 6.26375 1 7.16812 1 8.11111V29.4444C1 30.3874 1.3746 31.2918 2.0414 31.9586C2.70819 32.6254 3.61256 33 4.55556 33H22.3333C23.2763 33 24.1807 32.6254 24.8475 31.9586C25.5143 31.2918 25.8889 30.3874 25.8889 29.4444V8.11111C25.8889 7.16812 25.5143 6.26375 24.8475 5.59695C24.1807 4.93016 23.2763 4.55556 22.3333 4.55556H18.7778M8.11111 4.55556C8.11111 3.61256 8.48571 2.70819 9.15251 2.0414C9.81931 1.3746 10.7237 1 11.6667 1H15.2222C16.1652 1 17.0696 1.3746 17.7364 2.0414C18.4032 2.70819 18.7778 3.61256 18.7778 4.55556M8.11111 4.55556C8.11111 5.49855 8.48571 6.40292 9.15251 7.06971C9.81931 7.73651 10.7237 8.11111 11.6667 8.11111H15.2222C16.1652 8.11111 17.0696 7.73651 17.7364 7.06971C18.4032 6.40292 18.7778 5.49855 18.7778 4.55556M17 15.2222H12.5556C11.8483 15.2222 11.17 15.5032 10.6699 16.0033C10.1698 16.5034 9.88889 17.1816 9.88889 17.8889C9.88889 18.5961 10.1698 19.2744 10.6699 19.7745C11.17 20.2746 11.8483 20.5556 12.5556 20.5556H14.3333C15.0406 20.5556 15.7189 20.8365 16.219 21.3366C16.719 21.8367 17 22.515 17 23.2222C17 23.9295 16.719 24.6077 16.219 25.1078C15.7189 25.6079 15.0406 25.8889 14.3333 25.8889H9.88889M13.4444 25.8889V27.6667M13.4444 13.4444V15.2222" stroke="#007FEE" stroke-width="2" stroke-linecap="round" stroke-linejoin="round"/>
</svg>
