<svg width="34" height="34" viewBox="0 0 34 34" fill="none" xmlns="http://www.w3.org/2000/svg">
<path d="M14.0222 3.34133C14.7796 0.219556 19.2204 0.219556 19.9778 3.34133C20.0914 3.81031 20.3142 4.24583 20.6279 4.61244C20.9417 4.97906 21.3376 5.26641 21.7834 5.4511C22.2292 5.6358 22.7123 5.71262 23.1934 5.67532C23.6745 5.63802 24.14 5.48765 24.552 5.23644C27.2951 3.56533 30.4364 6.70489 28.7653 9.44978C28.5145 9.86161 28.3644 10.3268 28.3271 10.8076C28.2899 11.2884 28.3667 11.7711 28.5512 12.2167C28.7356 12.6622 29.0226 13.0579 29.3888 13.3716C29.755 13.6854 30.1901 13.9083 30.6587 14.0222C33.7804 14.7796 33.7804 19.2204 30.6587 19.9778C30.1897 20.0914 29.7542 20.3142 29.3876 20.6279C29.0209 20.9417 28.7336 21.3376 28.5489 21.7834C28.3642 22.2292 28.2874 22.7123 28.3247 23.1934C28.362 23.6745 28.5124 24.14 28.7636 24.552C30.4347 27.2951 27.2951 30.4364 24.5502 28.7653C24.1384 28.5145 23.6732 28.3644 23.1924 28.3271C22.7116 28.2899 22.2289 28.3667 21.7833 28.5512C21.3378 28.7356 20.9421 29.0226 20.6284 29.3888C20.3146 29.755 20.0917 30.1901 19.9778 30.6587C19.2204 33.7804 14.7796 33.7804 14.0222 30.6587C13.9086 30.1897 13.6858 29.7542 13.3721 29.3876C13.0583 29.0209 12.6624 28.7336 12.2166 28.5489C11.7708 28.3642 11.2877 28.2874 10.8066 28.3247C10.3255 28.362 9.86 28.5124 9.448 28.7636C6.70489 30.4347 3.56356 27.2951 5.23467 24.5502C5.48551 24.1384 5.63565 23.6732 5.67286 23.1924C5.71007 22.7116 5.63332 22.2289 5.44884 21.7833C5.26436 21.3378 4.97735 20.9421 4.61115 20.6284C4.24495 20.3146 3.80989 20.0917 3.34133 19.9778C0.219556 19.2204 0.219556 14.7796 3.34133 14.0222C3.81031 13.9086 4.24583 13.6858 4.61244 13.3721C4.97906 13.0583 5.26641 12.6624 5.4511 12.2166C5.6358 11.7708 5.71262 11.2877 5.67532 10.8066C5.63802 10.3255 5.48765 9.86 5.23644 9.448C3.56533 6.70489 6.70489 3.56356 9.44978 5.23467C11.2276 6.31556 13.5316 5.35911 14.0222 3.34133Z" stroke="#007FEE" stroke-width="2" stroke-linecap="round" stroke-linejoin="round"/>
<path d="M11.6667 17C11.6667 18.4145 12.2286 19.771 13.2288 20.7712C14.229 21.7714 15.5855 22.3333 17 22.3333C18.4145 22.3333 19.771 21.7714 20.7712 20.7712C21.7714 19.771 22.3333 18.4145 22.3333 17C22.3333 15.5855 21.7714 14.229 20.7712 13.2288C19.771 12.2286 18.4145 11.6667 17 11.6667C15.5855 11.6667 14.229 12.2286 13.2288 13.2288C12.2286 14.229 11.6667 15.5855 11.6667 17Z" stroke="#007FEE" stroke-width="2" stroke-linecap="round" stroke-linejoin="round"/>
</svg>
